<?xml version="1.0" standalone="no"?>
<!DOCTYPE svg PUBLIC "-//W3C//DTD SVG 20010904//EN"
 "http://www.w3.org/TR/2001/REC-SVG-20010904/DTD/svg10.dtd">
<svg version="1.0" xmlns="http://www.w3.org/2000/svg"
 width="2376.000000pt" height="391.000000pt" viewBox="0 0 2376.000000 391.000000"
 preserveAspectRatio="xMidYMid meet">

<g transform="translate(0.000000,391.000000) scale(0.100000,-0.100000)"
fill="#000000" stroke="none">
<path d="M0 1955 l0 -1955 11880 0 11880 0 0 1955 0 1955 -11880 0 -11880 0 0
-1955z m3652 1309 c121 -29 194 -89 250 -202 l33 -67 0 -635 0 -635 -24 -60
c-39 -97 -120 -168 -231 -203 -55 -17 -2145 -19 -2185 -2 -16 7 -45 19 -64 28
-41 17 -114 83 -140 126 -11 17 -28 54 -38 81 -17 46 -18 95 -18 680 l0 630
28 59 c52 107 131 175 241 208 57 17 120 17 1076 12 822 -4 1026 -8 1072 -20z
m3310 -266 c41 -23 99 -82 119 -120 26 -52 27 -174 0 -226 -97 -188 -365 -187
-464 3 -26 50 -28 174 -4 219 34 63 103 122 160 137 44 11 160 3 189 -13z
m7784 -3 c45 -22 109 -95 125 -141 30 -89 10 -190 -50 -257 -123 -137 -337
-108 -424 57 -30 57 -30 165 0 221 40 73 93 120 156 136 46 12 157 3 193 -16z
m-9039 -56 c98 -23 130 -32 205 -61 145 -56 304 -184 371 -298 37 -63 57 -151
57 -246 0 -70 -4 -89 -28 -135 -32 -62 -94 -113 -155 -130 -52 -14 -143 -7
-185 15 -48 25 -101 83 -123 133 -35 82 -17 204 39 266 15 17 15 20 -2 52 -47
87 -141 136 -295 153 -187 21 -330 -43 -428 -190 -44 -66 -59 -94 -84 -153
-49 -116 -78 -373 -60 -527 35 -296 164 -513 360 -605 50 -24 68 -27 171 -27
113 0 117 0 190 36 165 81 271 224 326 438 18 71 25 85 40 82 11 -1 68 -15
127 -30 l109 -26 -6 -37 c-17 -104 -105 -325 -167 -416 -58 -84 -175 -185
-274 -235 -103 -53 -238 -78 -417 -78 -218 0 -351 32 -527 127 -107 57 -148
88 -241 184 -118 120 -202 277 -250 464 -20 75 -23 116 -23 245 0 137 3 167
27 255 64 234 190 425 366 555 131 96 236 143 425 188 57 13 395 14 452 1z
m6010 0 c122 -28 123 -29 233 -73 76 -31 186 -110 235 -170 95 -117 127 -296
71 -403 -21 -40 -74 -92 -118 -114 -46 -23 -159 -26 -211 -4 -49 20 -93 60
-123 111 -22 37 -26 56 -26 121 0 92 15 132 68 185 27 28 34 41 26 50 -28 34
-223 61 -340 47 -92 -11 -128 -24 -165 -58 -46 -42 -57 -73 -57 -158 0 -68 4
-84 30 -131 18 -30 51 -67 78 -87 41 -30 202 -115 218 -115 3 0 20 -6 37 -14
18 -7 59 -24 92 -36 290 -107 430 -203 501 -342 152 -300 -37 -673 -396 -783
-158 -48 -379 -61 -526 -30 -340 71 -539 226 -584 456 -19 97 5 180 71 247 52
53 104 75 179 76 149 1 260 -111 260 -263 0 -63 -21 -112 -71 -166 l-40 -44
30 -15 c16 -9 38 -16 49 -16 10 0 23 -5 30 -12 18 -18 315 -17 372 1 112 37
160 96 160 198 0 102 -51 182 -155 247 -76 48 -145 79 -300 136 -415 152 -555
295 -555 566 0 144 31 241 114 351 89 118 200 182 416 241 49 14 340 14 397 1z
m9275 -371 l3 -153 218 -3 217 -2 0 -130 0 -130 -217 -2 -218 -3 -3 -418 c-2
-451 -2 -453 52 -499 30 -25 108 -24 157 4 41 23 89 85 89 116 0 10 6 27 14
37 12 17 18 18 53 7 22 -7 56 -12 75 -12 19 0 43 -6 53 -14 17 -13 18 -16 1
-81 -43 -171 -144 -293 -286 -345 -68 -25 -240 -28 -327 -5 -161 41 -282 148
-318 280 -5 17 -11 233 -14 480 l-6 450 -72 3 -73 3 0 127 0 127 76 13 c89 14
160 50 220 114 46 48 117 143 127 171 5 14 20 17 91 17 l85 0 3 -152z m-4676
-107 c16 -5 49 -15 74 -22 111 -32 225 -134 288 -257 46 -91 73 -180 89 -292
12 -85 9 -307 -5 -380 -7 -36 -16 -80 -19 -98 -3 -18 -9 -35 -14 -38 -5 -3 -9
-12 -9 -20 0 -22 -40 -103 -81 -164 -72 -108 -171 -182 -300 -226 -118 -40
-300 -32 -419 18 -36 16 -132 85 -138 100 -2 4 -10 8 -18 8 -12 0 -14 -32 -14
-185 l0 -184 73 -3 72 -3 3 -128 3 -127 -383 2 -383 3 -3 121 c-3 139 -7 134
99 134 43 0 58 4 63 16 8 20 8 1398 0 1418 -5 12 -21 16 -73 16 -36 0 -72 4
-79 8 -9 7 -12 39 -10 128 l3 119 236 3 c181 2 239 -1 246 -10 6 -7 27 -46 48
-86 l37 -72 55 50 c87 80 160 117 283 145 66 15 235 19 276 6z m1830 -8 c167
-39 323 -206 377 -403 33 -122 38 -165 39 -333 0 -226 -14 -295 -93 -462 -23
-50 -54 -91 -108 -146 -120 -121 -237 -169 -407 -169 -161 0 -270 38 -365 127
l-49 46 0 -197 0 -196 68 0 c37 0 73 -4 80 -8 9 -7 12 -39 10 -128 l-3 -119
-383 -3 -383 -2 3 127 3 128 73 3 72 3 0 724 0 724 -72 3 -73 3 -3 128 -3 127
234 0 c264 0 243 6 287 -85 43 -89 44 -90 98 -36 75 75 156 117 282 146 61 15
250 13 316 -2z m-9591 -17 c168 -44 267 -164 308 -371 5 -27 12 -228 16 -445
l6 -395 75 -5 75 -5 0 -125 0 -125 -380 0 -380 0 0 125 0 125 72 3 c68 3 73 5
79 27 3 14 4 186 2 382 -4 342 -5 361 -27 415 -28 72 -60 96 -138 104 -96 10
-170 -31 -258 -146 l-45 -58 0 -361 0 -360 78 -3 77 -3 0 -125 0 -125 -380 0
-380 0 0 125 0 125 70 3 c40 2 73 8 77 15 4 7 8 212 8 457 0 334 -3 449 -12
458 -7 7 -41 12 -80 12 l-69 0 3 123 3 122 249 0 249 0 47 -90 c27 -49 52 -91
58 -93 5 -1 19 13 31 32 44 71 141 142 238 175 71 24 251 28 328 7z m1513 -6
c260 -68 455 -252 530 -500 42 -139 51 -232 30 -300 l-13 -40 -507 0 c-279 0
-509 -4 -512 -8 -7 -12 22 -141 46 -201 27 -68 94 -136 164 -167 45 -20 71
-24 146 -24 50 0 108 5 127 11 114 35 200 105 242 196 11 24 26 43 35 43 35 0
204 -64 204 -77 0 -8 -10 -33 -21 -56 -95 -186 -245 -308 -449 -363 -117 -32
-305 -33 -418 -3 -163 43 -313 139 -402 258 -50 66 -110 177 -110 203 0 8 -4
18 -8 23 -35 39 -51 342 -24 435 7 25 18 61 24 80 5 19 28 73 51 120 72 148
227 283 399 346 133 49 330 59 466 24z m3592 -1 c145 -47 226 -137 272 -299
25 -88 30 -169 36 -525 l7 -380 70 -5 70 -5 3 -128 3 -127 -383 2 -383 3 -3
114 c-2 75 1 118 9 127 8 9 33 14 79 14 53 0 69 4 74 16 10 27 7 618 -5 701
-12 90 -42 158 -82 187 -23 17 -44 21 -100 21 -82 0 -121 -20 -193 -96 -90
-97 -84 -61 -84 -468 l0 -361 75 0 c90 0 87 4 83 -150 l-3 -105 -385 0 -385 0
-3 114 c-2 75 1 118 9 127 8 10 34 14 80 14 l69 0 -2 468 -3 467 -75 5 -75 5
0 120 0 120 252 3 253 2 51 -102 52 -103 16 25 c27 42 112 129 148 151 19 12
65 32 101 45 93 32 260 33 352 3z m6035 1 c246 -66 426 -223 512 -447 17 -43
35 -99 42 -126 15 -65 14 -229 -1 -250 -12 -15 -57 -17 -518 -19 l-505 -3 3
-40 c13 -153 84 -271 196 -325 56 -26 75 -30 149 -30 188 0 315 72 384 217 8
18 22 33 30 33 27 0 203 -63 203 -73 0 -5 -14 -37 -31 -71 -90 -178 -245 -300
-451 -355 -107 -29 -298 -29 -403 -1 -237 64 -402 198 -495 404 -53 117 -64
177 -64 346 0 146 2 160 30 241 46 131 97 214 188 305 103 102 208 159 376
203 68 18 274 13 355 -9z m-12617 -617 l2 -592 73 -3 72 -3 3 -128 3 -127
-383 2 -383 3 -3 119 c-2 89 1 121 10 128 7 4 43 8 81 8 l67 0 -2 468 -3 467
-77 3 -78 3 0 118 c0 65 3 121 7 124 4 4 142 6 307 5 l301 -3 3 -592z m7772
18 c0 -319 3 -586 6 -595 5 -12 21 -16 74 -16 46 0 71 -5 79 -14 8 -9 11 -52
9 -127 l-3 -114 -382 -3 -383 -2 0 129 0 130 73 3 72 3 0 465 0 465 -72 3 -73
3 0 124 0 125 300 0 300 0 0 -579z m7655 564 c129 -27 204 -64 283 -139 55
-52 72 -92 72 -170 0 -51 -5 -70 -29 -108 -123 -194 -412 -113 -414 116 0 44
-5 65 -16 73 -23 18 -224 17 -259 -1 -54 -28 -68 -58 -64 -138 4 -65 116 -134
292 -180 117 -30 132 -34 185 -53 141 -49 257 -130 296 -207 48 -94 59 -196
34 -302 -61 -255 -263 -366 -667 -366 -211 0 -306 22 -424 96 -207 130 -183
418 40 473 40 10 57 9 101 -4 104 -30 156 -98 165 -215 l5 -75 62 -9 c33 -5
99 -5 146 -1 72 6 90 11 118 35 33 27 34 30 34 105 l0 77 -42 38 c-51 45 -108
66 -323 120 -135 34 -190 56 -266 106 -107 71 -144 151 -144 310 0 55 5 116
11 135 48 150 148 237 323 280 94 23 379 25 481 4z m-20349 -1251 c51 -29 88
-72 103 -117 l11 -34 808 -6 807 -7 28 -30 c37 -41 36 -83 -2 -121 l-29 -29
-794 -1 c-436 -1 -802 -1 -813 0 -13 1 -33 -13 -53 -38 -52 -65 -113 -95 -192
-95 -80 -1 -144 27 -206 92 l-41 42 -245 0 -245 0 -27 26 c-35 35 -37 101 -3
131 44 41 59 43 291 43 186 0 226 2 226 14 0 24 86 111 132 134 76 38 175 37
244 -4z"/>
<path d="M15931 2161 c-46 -12 -109 -58 -148 -110 l-33 -43 0 -308 0 -308 33
-44 c18 -23 53 -56 77 -73 41 -28 52 -30 130 -30 67 1 94 5 125 22 70 37 112
94 147 199 19 59 22 91 22 224 1 162 -5 197 -50 296 -60 135 -182 205 -303
175z"/>
<path d="M17722 2161 c-50 -13 -108 -56 -147 -109 l-35 -47 0 -306 0 -306 35
-46 c20 -26 57 -59 83 -74 41 -24 57 -28 127 -28 95 0 136 17 190 76 73 81
105 197 105 379 -1 127 -14 199 -54 287 -29 62 -93 135 -140 159 -37 18 -121
26 -164 15z"/>
<path d="M9805 2183 c-50 -8 -121 -66 -150 -123 -18 -36 -43 -118 -50 -167
l-7 -43 271 0 271 0 0 37 c0 101 -75 239 -152 279 -30 16 -134 25 -183 17z"/>
<path d="M19435 2184 c-110 -29 -180 -131 -202 -296 l-5 -38 270 0 c149 0 273
4 276 8 5 8 0 32 -31 139 -18 64 -61 124 -112 158 -29 20 -55 27 -107 30 -38
2 -78 2 -89 -1z"/>
</g>
</svg>
