<?xml version="1.0" standalone="no"?>
<!DOCTYPE svg PUBLIC "-//W3C//DTD SVG 20010904//EN"
 "http://www.w3.org/TR/2001/REC-SVG-20010904/DTD/svg10.dtd">
<svg version="1.0" xmlns="http://www.w3.org/2000/svg"
 width="1130.000000pt" height="198.000000pt" viewBox="0 0 1130.000000 198.000000"
 preserveAspectRatio="xMidYMid meet">

<g transform="translate(0.000000,198.000000) scale(0.100000,-0.100000)"
fill="#000000" stroke="none">
<path d="M0 990 l0 -990 5650 0 5650 0 0 990 0 990 -5650 0 -5650 0 0 -990z
m1648 635 c44 -19 78 -49 100 -90 15 -26 17 -67 14 -349 -3 -299 -4 -322 -23
-355 -11 -20 -36 -48 -56 -61 l-37 -25 -541 0 -541 0 -43 28 c-78 52 -81 66
-81 419 0 193 4 317 11 335 14 37 57 82 94 99 24 10 137 13 548 14 445 0 523
-2 555 -15z m5438 -146 c55 -52 52 -134 -7 -184 -24 -19 -42 -25 -81 -25 -44
0 -54 4 -84 34 -30 30 -34 40 -34 85 0 41 5 56 28 82 46 52 128 55 178 8z
m-3817 5 c89 -75 38 -214 -79 -214 -115 0 -166 135 -80 213 42 38 115 38 159
1z m-602 -18 c167 -45 273 -154 273 -282 0 -67 -30 -114 -87 -133 -35 -13 -46
-13 -78 0 -74 28 -104 107 -67 177 l20 39 -21 26 c-50 61 -194 78 -272 33 -91
-54 -138 -170 -138 -341 0 -124 18 -190 73 -270 88 -128 260 -134 364 -14 36
43 76 132 76 170 0 18 4 20 28 15 77 -19 102 -27 102 -35 0 -23 -36 -124 -62
-174 -37 -70 -92 -120 -167 -156 -52 -24 -66 -26 -191 -26 -114 0 -144 4 -192
22 -135 50 -246 164 -294 301 -28 79 -32 215 -10 298 44 166 182 304 349 349
68 18 228 19 294 1z m2978 -9 c125 -40 197 -118 203 -222 4 -60 3 -65 -29
-100 -60 -65 -153 -57 -200 18 -25 41 -21 108 10 141 11 12 21 25 21 29 0 29
-178 39 -229 13 -64 -34 -62 -139 5 -194 19 -16 90 -51 157 -77 166 -65 225
-104 263 -176 27 -50 26 -171 -3 -224 -31 -57 -89 -110 -158 -142 -56 -26 -69
-28 -185 -28 -143 0 -209 15 -286 67 -116 78 -146 213 -63 282 24 20 42 26 79
26 113 0 166 -124 89 -206 l-20 -22 31 -11 c123 -43 273 -9 280 64 10 92 -38
144 -186 200 -238 91 -303 153 -304 286 0 139 85 245 229 286 60 17 230 11
296 -10z m4475 -167 l0 -80 105 0 105 0 0 -60 0 -60 -105 0 -105 0 0 -214 c0
-182 2 -217 16 -230 35 -36 115 -5 128 50 6 21 11 25 29 20 12 -3 32 -6 45 -6
56 0 -1 -143 -76 -191 -40 -25 -56 -29 -116 -29 -39 0 -88 5 -109 11 -39 11
-99 57 -120 93 -8 14 -14 99 -17 256 l-5 235 -37 3 -38 3 0 59 c0 63 -2 60 64
75 43 9 79 38 121 95 33 45 40 50 76 50 l39 0 0 -80z m-2255 -61 c56 -16 126
-89 156 -164 21 -52 24 -77 24 -190 0 -151 -18 -212 -85 -288 -58 -65 -122
-90 -225 -85 -71 3 -88 7 -133 35 l-52 32 0 -89 0 -90 35 0 35 0 0 -65 0 -65
-185 0 -186 0 3 63 3 62 38 3 37 3 0 355 0 354 -40 0 -40 0 0 60 0 60 118 0
119 0 18 -40 18 -39 41 35 c22 19 61 41 86 49 55 17 161 19 215 4z m879 -1
c59 -18 128 -90 157 -163 20 -52 23 -77 23 -190 0 -111 -3 -138 -22 -186 -49
-123 -143 -189 -267 -189 -81 0 -125 12 -172 46 -17 13 -34 24 -38 24 -3 0 -4
-39 -3 -88 l3 -87 35 -5 35 -5 3 -62 3 -63 -186 0 -185 0 0 65 0 65 35 0 35 0
0 355 0 355 -35 0 -35 0 0 60 0 60 115 0 116 0 20 -35 c12 -19 23 -35 26 -35
2 0 21 14 42 31 21 17 58 37 82 44 56 17 160 19 213 3z m-4686 -13 c53 -23 79
-51 103 -114 19 -49 23 -82 27 -263 l4 -208 34 0 34 0 0 -60 0 -60 -185 0
-185 0 0 60 0 60 36 0 35 0 -3 204 c-3 182 -5 206 -22 224 -42 47 -123 31
-170 -32 -22 -29 -24 -41 -27 -211 l-4 -180 38 -3 37 -3 0 -60 0 -59 -185 0
-185 0 0 60 0 60 35 0 35 0 0 230 0 230 -35 0 -35 0 0 65 0 65 120 0 120 0 26
-51 26 -52 29 36 c44 54 101 77 187 77 43 0 88 -6 110 -15z m785 -20 c74 -36
149 -117 175 -188 26 -70 37 -150 22 -176 -10 -20 -18 -21 -255 -21 l-245 0 0
-28 c0 -42 41 -114 79 -139 38 -25 109 -31 173 -13 33 10 82 54 106 96 9 15
12 15 61 -1 28 -9 51 -19 51 -21 0 -21 -48 -90 -90 -127 -75 -68 -142 -89
-260 -85 -79 3 -105 8 -155 31 -125 58 -195 166 -203 313 -9 175 69 305 224
370 52 22 71 24 159 21 86 -3 108 -7 158 -32z m1710 19 c51 -26 75 -54 99
-113 19 -49 22 -81 26 -263 l4 -208 34 0 34 0 0 -60 0 -60 -185 0 -185 0 0 59
0 60 38 3 37 3 0 185 c0 205 -7 240 -55 260 -42 17 -84 4 -130 -42 l-40 -40 0
-184 0 -184 35 0 35 0 0 -60 0 -60 -185 0 -185 0 0 60 0 60 35 0 35 0 0 230 0
230 -35 0 -35 0 0 65 0 65 120 0 120 0 26 -51 26 -52 29 36 c45 55 100 77 192
77 52 0 89 -5 110 -16z m3009 -22 c122 -60 192 -169 193 -302 l0 -75 -253 -3
-254 -2 7 -33 c12 -59 48 -119 85 -138 46 -25 132 -25 187 0 26 12 52 35 69
61 29 43 34 45 99 20 32 -12 32 -26 -4 -81 -37 -57 -64 -81 -131 -116 -51 -26
-63 -28 -170 -28 -107 0 -119 2 -174 29 -292 143 -263 579 45 690 31 11 72 15
139 13 85 -2 103 -6 162 -35z m-6260 -264 l3 -293 38 -3 37 -3 0 -60 0 -59
-190 0 -190 0 0 60 0 60 40 0 40 0 0 230 0 230 -40 0 -40 0 0 58 c0 32 3 62 7
65 3 4 71 7 150 7 l143 0 2 -292z m3808 -3 l0 -295 40 0 40 0 0 -60 0 -60
-190 0 -190 0 0 60 0 60 40 0 40 0 0 230 0 230 -40 0 -40 0 0 58 c0 32 3 62 7
65 3 4 71 7 150 7 l143 0 0 -295z m3826 258 c92 -49 121 -129 68 -192 -65 -77
-181 -36 -188 67 l-2 37 -62 3 c-79 4 -102 -8 -102 -53 0 -47 31 -68 154 -106
120 -37 162 -57 199 -96 66 -70 62 -194 -10 -274 -54 -60 -137 -82 -290 -77
-99 2 -126 7 -165 26 -114 56 -131 190 -32 237 73 34 154 -19 154 -102 0 -29
4 -33 35 -39 37 -7 98 1 127 17 13 7 18 22 18 49 0 49 -26 76 -95 95 -135 37
-163 47 -199 67 -60 35 -79 68 -84 142 -5 79 9 123 51 164 54 52 95 62 247 59
116 -2 141 -6 176 -24z m-10038 -589 c12 -8 29 -28 37 -45 l16 -29 389 0 c375
0 391 -1 410 -20 15 -15 17 -25 11 -42 l-8 -23 -405 -5 -405 -5 -37 -32 c-55
-49 -127 -42 -180 16 -18 20 -29 22 -138 20 -123 -1 -148 6 -148 42 0 40 25
49 145 49 113 0 115 0 132 26 38 59 131 83 181 48z"/>
<path d="M7630 1089 c-14 -6 -37 -22 -52 -36 l-28 -27 0 -157 c0 -178 7 -198
78 -220 78 -23 148 19 173 104 18 63 12 191 -12 246 -33 77 -99 115 -159 90z"/>
<path d="M8505 1086 c-17 -7 -43 -28 -58 -45 -26 -32 -27 -35 -27 -169 0 -157
12 -191 77 -218 66 -28 134 0 170 70 24 45 29 181 10 247 -28 95 -104 146
-172 115z"/>
<path d="M4620 1093 c-39 -20 -65 -61 -75 -115 l-7 -38 131 0 131 0 0 25 c0
99 -99 169 -180 128z"/>
<path d="M9333 1094 c-36 -18 -73 -83 -73 -127 l0 -27 131 0 131 0 -7 37 c-19
105 -102 158 -182 117z"/>
</g>
</svg>
